<?xml version="1.0" encoding="utf-8"?>
<!-- Generator: Adobe Illustrator 16.0.0, SVG Export Plug-In . SVG Version: 6.00 Build 0)  -->
<!DOCTYPE svg PUBLIC "-//W3C//DTD SVG 1.1//EN" "http://www.w3.org/Graphics/SVG/1.1/DTD/svg11.dtd">
<svg version="1.1" id="Capa_1" xmlns="http://www.w3.org/2000/svg" xmlns:xlink="http://www.w3.org/1999/xlink" x="0px" y="0px"
	 width="841.889px" height="595.281px" viewBox="0 0 841.889 595.281" enable-background="new 0 0 841.889 595.281"
	 xml:space="preserve">
<g id="XMLID_17_">
	<path id="XMLID_18_" fill="#FFFFFF" d="M680.426,145.004h-108.15l-23.048-61.462c-3.351-8.937-11.894-14.856-21.438-14.856H314.1
		c-9.545,0-18.088,5.919-21.438,14.856l-23.049,61.462H161.464c-21.075,0-38.159,17.085-38.159,38.159v305.272
		c0,21.074,17.084,38.158,38.159,38.158h518.962c21.074,0,38.158-17.084,38.158-38.158V183.163
		C718.584,162.089,701.5,145.004,680.426,145.004z M420.945,190.795c79.955,0,145.004,65.049,145.004,145.003
		c0,79.957-65.049,145.006-145.004,145.006s-145.004-65.049-145.004-145.006C275.941,255.844,340.99,190.795,420.945,190.795z"/>
	<path id="XMLID_21_" fill="#FFFFFF" d="M321.732,335.798c0,54.707,44.507,99.215,99.213,99.215s99.214-44.508,99.214-99.215
		c0-54.706-44.508-99.212-99.214-99.212S321.732,281.093,321.732,335.798z"/>
</g>
</svg>
