<svg version="1.1" id="Layer_1" xmlns="http://www.w3.org/2000/svg" x="0" y="0" viewBox="0 0 500 104" xml:space="preserve"><style>.st0{fill:#fff}</style><path class="st0" d="M12.2 47.9h34.5V7.5H0v10.8h34.2V37H0v41.3h54.7V67.6H12.2zm62.7-11.7V2.7H62.4v98.6h12.5v-54h17V36.2zM184.5 2.7H197v98.5h-12.5zm103.6 7.8h-12.5v17.7h-42.9V10.5h-12.5v56.3H288V10.5zm-12.5 45.2h-42.9V39.3h42.9v16.4zm-67.7 26.7h92.4v11.1h-92.4zm-36.7-45c-1.9-4.5-4.6-8.4-7.9-11.8-3.4-3.3-7.4-6-12-7.9-4.6-1.9-9.7-2.8-15-2.8-5.3 0-10.2 1-14.8 2.8-4.6 1.9-8.6 4.5-12 7.8-3.4 3.3-6 7.3-8 11.7-1.9 4.5-2.9 9.4-2.9 14.6s1 10.2 2.9 14.8c1.9 4.5 4.6 8.5 7.9 11.8 3.4 3.3 7.4 5.9 12 7.7 4.6 1.8 9.6 2.8 14.9 2.8 5.3 0 10.4-1 15-2.8 4.6-1.9 8.7-4.5 12-7.8 3.4-3.3 6-7.2 7.9-11.7 1.9-4.5 2.9-9.4 2.9-14.7-.1-5.2-1-10-2.9-14.5zm-9.5 25.3c-1.4 3.2-3.3 6.1-5.7 8.5-2.4 2.4-5.4 4.3-8.7 5.6-3.4 1.4-7 2.1-11 2.1-3.9 0-7.6-.7-10.9-2-3.3-1.3-6.2-3.2-8.7-5.6-2.4-2.4-4.4-5.2-5.7-8.5-1.4-3.3-2.1-6.9-2.1-10.8 0-3.9.7-7.3 2.1-10.6 1.4-3.3 3.4-6.1 5.8-8.5 2.4-2.4 5.3-4.3 8.7-5.7 3.3-1.4 7-2.1 10.8-2.1 3.8 0 7.6.7 11 2.1 3.4 1.4 6.3 3.3 8.7 5.7 2.4 2.4 4.4 5.3 5.7 8.5 1.4 3.3 2.1 6.8 2.1 10.6-.1 3.9-.8 7.5-2.1 10.7z"/><path class="st0" d="M149.4 49l-18.2-11.4c-1.1-.7-2.5-.7-3.6-.1s-1.8 1.8-1.8 3.1v22.7c0 1.3.7 2.5 1.8 3.1.5.3 1.1.4 1.7.4.7 0 1.3-.2 1.9-.5L149.4 55c1-.6 1.7-1.8 1.7-3s-.7-2.4-1.7-3zM378.3 2.7v29.8h-20.4v11.1h20.4v57.7h12.5V2.7z"/><path class="st0" d="M369.2 68.7c-4.9-3.8-9.1-7.2-12.3-10.2-3.2-2.9-5.7-5.7-7.6-8.2-1.8-2.4-3.1-4.9-3.8-7.1-.7-2.3-1.1-4.8-1.1-7.5v-28h-12.5V36c0 3.1-.4 6-1.1 8.5-.7 2.6-2 5.2-3.8 7.8-1.8 2.7-4.3 5.5-7.4 8.5-3.2 3-7.2 6.5-11.9 10.2l-1.7 1.3 7.9 9.2 1.6-1.3c6.5-5.3 11.8-10.1 15.7-14.3 3-3.3 5.5-6.6 7.5-9.8 2 2.8 4.5 5.6 7.5 8.5 4 3.8 9.2 8.3 15.5 13.3l1.6 1.3 7.5-9.2-1.6-1.3zm90.8-8.5v-5.6h40V43.8h-92.4v10.8h39.9v5.6zm-27.4-23.1c2.7 1.8 6 3.2 9.6 4.1 3.6.9 7.4 1.4 11.5 1.4s7.8-.5 11.4-1.4c3.6-.9 6.9-2.3 9.6-4.1 2.8-1.8 5.1-4.1 6.7-6.7 1.7-2.7 2.6-5.7 2.6-9.1s-.9-6.4-2.6-9.1c-1.6-2.6-3.9-4.9-6.7-6.7-2.7-1.8-6-3.2-9.6-4.1-7.3-1.9-15.8-1.8-22.9 0-3.6.9-6.8 2.3-9.6 4.1-2.8 1.8-5.1 4.1-6.7 6.7-1.7 2.7-2.6 5.7-2.6 9.1 0 3.3.9 6.4 2.6 9.1 1.6 2.6 3.9 4.8 6.7 6.7zm3.2-15.8c0-1.4.4-2.7 1.2-3.9.9-1.3 2.1-2.4 3.7-3.4s3.5-1.7 5.7-2.3c2.2-.5 4.6-.8 7.1-.8s4.9.3 7.1.8c2.2.5 4.1 1.3 5.7 2.3 1.5.9 2.8 2.1 3.7 3.4.8 1.2 1.2 2.5 1.2 3.9s-.4 2.7-1.2 3.9c-.9 1.3-2.2 2.4-3.7 3.4-1.6 1-3.5 1.8-5.7 2.3-4.4 1.1-9.9 1.1-14.3 0-2.2-.5-4.1-1.3-5.7-2.3-1.5-.9-2.8-2.1-3.7-3.4-.7-1.2-1.1-2.5-1.1-3.9zm-3.3 71.6v-6h55.4V60.2H420v11.2h55.4v4.4H420V104h69.3V92.9h-56.8z"/></svg>